<svg width="1015" height="1015" fill="none" xmlns="http://www.w3.org/2000/svg"><path fill-rule="evenodd" clip-rule="evenodd" d="M724.177 966.552C896.079 885.27 1015 710.273 1015 507.5 1015 227.216 787.785 0 507.5 0 227.216 0 0 227.216 0 507.5c0 222.336 142.975 411.279 341.999 479.902v-768.49c0-34.242 27.758-62 62-62 1.528 0 3.044.055 4.544.164a67.177 67.177 0 0 1 7.173-.382A359.624 359.624 0 0 1 775.343 516.32a359.624 359.624 0 0 1-186.298 315.1l135.132 135.132Zm-133.67 41.688L465.999 883.737v108.874a61.964 61.964 0 0 1-3.443 20.429A513.83 513.83 0 0 0 507.5 1015c28.269 0 55.997-2.31 83.007-6.76ZM465.999 737.297V295.342A226.622 226.622 0 0 1 642.343 516.32a226.624 226.624 0 0 1-176.344 220.977Z" fill="url('#a')"/><defs><linearGradient id="a" x1="507.5" y1="0" x2="507.5" y2="1015" gradientUnits="userSpaceOnUse"><stop stop-color="#21C2E6"/><stop offset="1" stop-color="#F26BE5"/></linearGradient></defs></svg>